{
	"asset":{
		"generator":"Khronos glTF Blender I/O v4.0.44",
		"version":"2.0"
	},
	"scene":0,
	"scenes":[
		{
			"name":"Scene",
			"nodes":[
				0,
				1
			]
		}
	],
	"nodes":[
		{
			"mesh":0,
			"name":"Board"
		},
		{
			"mesh":1,
			"name":"Cube"
		}
	],
	"materials":[
		{
			"doubleSided":true,
			"name":"BoardMaterialBaked",
			"pbrMetallicRoughness":{
				"baseColorTexture":{
					"index":0
				},
				"metallicFactor":0.7954545617103577
			}
		},
		{
			"doubleSided":true,
			"name":"LegsMaterial",
			"pbrMetallicRoughness":{
				"baseColorFactor":[
					0.015935011208057404,
					0.015849586576223373,
					0.023535430431365967,
					1
				],
				"metallicFactor":0,
				"roughnessFactor":0.20000000298023224
			}
		}
	],
	"meshes":[
		{
			"name":"Cube",
			"primitives":[
				{
					"attributes":{
						"POSITION":0,
						"NORMAL":1,
						"TEXCOORD_0":2
					},
					"indices":3,
					"material":0
				}
			]
		},
		{
			"name":"Cube.001",
			"primitives":[
				{
					"attributes":{
						"POSITION":4,
						"NORMAL":5,
						"TEXCOORD_0":6
					},
					"indices":7,
					"material":1
				}
			]
		}
	],
	"textures":[
		{
			"sampler":0,
			"source":0
		}
	],
	"images":[
		{
			"mimeType":"image/png",
			"name":"BoardTexture",
			"uri":"textures/BoardTexture.png"
		}
	],
	"accessors":[
		{
			"bufferView":0,
			"componentType":5126,
			"count":600,
			"max":[
				3.488816499710083,
				2.699662208557129,
				1.3203990459442139
			],
			"min":[
				-3.488816499710083,
				2.4295713901519775,
				-1.3203989267349243
			],
			"type":"VEC3"
		},
		{
			"bufferView":1,
			"componentType":5126,
			"count":600,
			"type":"VEC3"
		},
		{
			"bufferView":2,
			"componentType":5126,
			"count":600,
			"type":"VEC2"
		},
		{
			"bufferView":3,
			"componentType":5123,
			"count":900,
			"type":"SCALAR"
		},
		{
			"bufferView":4,
			"componentType":5126,
			"count":3692,
			"max":[
				3.294322967529297,
				2.4446372985839844,
				1.141526460647583
			],
			"min":[
				-3.2941408157348633,
				0,
				-1.1184675693511963
			],
			"type":"VEC3"
		},
		{
			"bufferView":5,
			"componentType":5126,
			"count":3692,
			"type":"VEC3"
		},
		{
			"bufferView":6,
			"componentType":5126,
			"count":3692,
			"type":"VEC2"
		},
		{
			"bufferView":7,
			"componentType":5123,
			"count":5736,
			"type":"SCALAR"
		}
	],
	"bufferViews":[
		{
			"buffer":0,
			"byteLength":7200,
			"byteOffset":0,
			"target":34962
		},
		{
			"buffer":0,
			"byteLength":7200,
			"byteOffset":7200,
			"target":34962
		},
		{
			"buffer":0,
			"byteLength":4800,
			"byteOffset":14400,
			"target":34962
		},
		{
			"buffer":0,
			"byteLength":1800,
			"byteOffset":19200,
			"target":34963
		},
		{
			"buffer":0,
			"byteLength":44304,
			"byteOffset":21000,
			"target":34962
		},
		{
			"buffer":0,
			"byteLength":44304,
			"byteOffset":65304,
			"target":34962
		},
		{
			"buffer":0,
			"byteLength":29536,
			"byteOffset":109608,
			"target":34962
		},
		{
			"buffer":0,
			"byteLength":11472,
			"byteOffset":139144,
			"target":34963
		}
	],
	"samplers":[
		{
			"magFilter":9729,
			"minFilter":9987
		}
	],
	"buffers":[
		{
			"byteLength":150616,
			"uri":"Table.bin"
		}
	]
}
